<?xml version="1.0" standalone="no"?>
<!DOCTYPE svg PUBLIC "-//W3C//DTD SVG 20010904//EN"
 "http://www.w3.org/TR/2001/REC-SVG-20010904/DTD/svg10.dtd">
<svg version="1.0" xmlns="http://www.w3.org/2000/svg"
 width="16.000000pt" height="16.000000pt" viewBox="0 0 16.000000 16.000000"
 preserveAspectRatio="xMidYMid meet">
<metadata>
Created by potrace 1.11, written by Peter Selinger 2001-2013
</metadata>
<g transform="translate(0.000000,16.000000) scale(0.001227,-0.001227)"
fill="#000000" stroke="none">
<path d="M9618 13035 c-2 -2 -36 -6 -75 -10 -40 -3 -87 -10 -104 -15 -17 -5
-34 -9 -38 -8 -3 0 -8 -1 -11 -2 -3 -1 -14 -3 -25 -5 -11 -2 -44 -11 -72 -20
-29 -9 -59 -18 -67 -19 -9 -1 -19 -5 -22 -9 -4 -4 -16 -7 -26 -7 -10 0 -18 -4
-18 -10 0 -5 -3 -9 -7 -8 -22 6 -258 -105 -330 -153 -23 -16 -44 -29 -47 -29
-6 0 -107 -70 -116 -80 -3 -3 -23 -19 -45 -35 -75 -55 -167 -139 -293 -268
-70 -71 -146 -149 -169 -172 l-42 -43 -98 51 c-134 69 -275 131 -418 184 -66
24 -127 47 -135 50 -8 4 -19 7 -25 8 -11 1 -80 22 -105 32 -8 4 -17 7 -20 8
-3 1 -12 4 -20 7 -17 7 -133 38 -158 43 -9 1 -37 8 -62 15 -25 7 -56 14 -70
16 -14 2 -36 6 -50 9 -14 3 -41 8 -60 11 -19 4 -44 8 -55 11 -11 2 -44 6 -72
8 -29 2 -56 6 -60 8 -5 3 -48 8 -98 12 -49 4 -112 9 -140 11 -64 5 -472 5
-590 0 -78 -4 -132 -7 -295 -21 -33 -2 -102 -10 -180 -20 -19 -3 -46 -7 -60
-10 -13 -2 -42 -7 -65 -10 -22 -3 -51 -8 -65 -11 -14 -2 -38 -6 -55 -9 -53 -7
-222 -46 -315 -71 -43 -12 -199 -62 -335 -108 -48 -16 -267 -116 -275 -125 -3
-3 -10 -7 -16 -8 -17 -3 -208 -116 -212 -125 -2 -4 -8 -8 -13 -8 -6 0 -15 -4
-22 -10 -7 -5 -41 -31 -77 -57 -36 -26 -70 -52 -77 -58 -6 -5 -35 -30 -64 -55
-85 -74 -223 -217 -281 -291 -14 -19 -40 -52 -57 -74 -17 -22 -35 -45 -41 -52
-5 -7 -10 -16 -10 -22 0 -5 -3 -11 -7 -13 -12 -5 -53 -66 -53 -78 0 -5 -3 -10
-7 -10 -5 0 -17 -18 -27 -40 -11 -22 -24 -40 -29 -40 -6 0 -8 -3 -5 -6 4 -3
-8 -31 -26 -62 -17 -31 -40 -77 -51 -102 -11 -25 -23 -48 -28 -51 -5 -3 -8 -8
-7 -10 1 -2 -3 -17 -9 -32 -6 -16 -11 -30 -11 -33 0 -2 -9 -23 -19 -47 -28
-61 -87 -246 -113 -352 -5 -22 -11 -47 -13 -55 -11 -44 -46 -230 -51 -265 -2
-22 -7 -58 -10 -80 -4 -22 -8 -60 -10 -85 -1 -25 -6 -81 -10 -125 -15 -151 -8
-601 10 -720 3 -16 7 -48 10 -70 3 -22 8 -51 11 -65 2 -13 7 -40 10 -60 3 -19
14 -71 25 -115 11 -44 23 -93 26 -110 3 -16 17 -59 31 -95 14 -36 26 -69 27
-75 1 -5 5 -16 9 -22 5 -7 5 -13 1 -13 -3 0 -1 -7 6 -15 7 -8 10 -15 7 -15 -4
0 5 -22 18 -49 14 -27 25 -52 25 -56 0 -12 92 -199 112 -227 11 -16 17 -28 13
-28 -3 0 12 -27 35 -59 22 -33 40 -63 40 -66 0 -4 27 -43 60 -87 33 -43 60
-81 60 -84 0 -3 15 -22 34 -42 36 -39 66 -73 95 -107 9 -11 44 -46 78 -77 34
-32 59 -58 56 -58 -2 0 17 -17 44 -37 26 -20 53 -41 60 -47 34 -30 53 -44 156
-112 62 -41 117 -78 123 -82 35 -24 204 -111 204 -105 0 2 12 -4 28 -15 15
-11 29 -19 32 -19 3 1 34 -10 70 -25 36 -15 74 -29 85 -33 16 -5 10 -13 -42
-46 -34 -21 -67 -39 -73 -39 -5 0 -10 -4 -10 -9 0 -5 -17 -17 -38 -26 -20 -10
-82 -48 -137 -84 -55 -36 -105 -68 -111 -71 -30 -15 -270 -188 -334 -242 -229
-192 -443 -449 -534 -642 -31 -65 -75 -176 -71 -176 3 0 0 -12 -6 -27 -6 -16
-13 -37 -15 -48 -2 -11 -6 -31 -9 -45 -14 -72 -18 -115 -19 -220 0 -155 9
-238 38 -345 10 -33 18 -65 20 -72 1 -7 5 -16 9 -19 4 -4 7 -13 7 -20 0 -24
100 -222 128 -252 6 -7 12 -19 12 -27 0 -7 3 -15 8 -17 4 -1 20 -21 37 -43 58
-77 70 -91 179 -198 60 -59 115 -107 123 -107 7 0 13 -4 13 -8 0 -10 183 -132
198 -132 7 0 12 -4 12 -8 0 -4 15 -15 33 -23 17 -8 59 -29 92 -46 72 -37 203
-98 229 -107 29 -10 15 -16 -50 -21 -143 -12 -168 -15 -319 -41 -100 -17 -119
-20 -155 -29 -14 -3 -34 -8 -45 -10 -56 -11 -162 -36 -175 -42 -18 -8 -15 -7
-70 -22 -45 -12 -76 -22 -115 -37 -11 -4 -22 -8 -25 -9 -123 -43 -340 -145
-417 -197 -23 -15 -46 -28 -51 -28 -6 0 -12 -4 -14 -8 -1 -5 -25 -23 -53 -42
-27 -19 -55 -39 -61 -45 -6 -5 -33 -28 -59 -50 -26 -22 -69 -62 -94 -89 -25
-27 -51 -54 -56 -60 -6 -6 -31 -38 -55 -71 -25 -33 -47 -62 -51 -65 -3 -3 -9
-12 -12 -20 -4 -8 -17 -31 -28 -50 -32 -52 -86 -162 -94 -190 -4 -14 -11 -29
-15 -35 -7 -8 -16 -35 -35 -105 -1 -3 -7 -25 -15 -50 -7 -25 -14 -52 -14 -60
-1 -9 -5 -20 -8 -26 -4 -5 -9 -34 -13 -64 -3 -29 -8 -56 -9 -59 -19 -31 -28
-488 -13 -601 4 -30 10 -71 12 -90 4 -28 18 -101 30 -155 30 -138 158 -461
187 -473 4 -2 8 -8 8 -12 0 -9 46 -86 77 -129 141 -193 337 -380 513 -488 25
-15 47 -30 50 -33 7 -10 134 -82 225 -128 115 -59 336 -151 400 -166 9 -3 22
-7 63 -23 15 -6 126 -38 162 -47 8 -2 27 -9 43 -15 15 -6 27 -9 27 -6 0 2 23
-3 52 -11 28 -9 61 -18 72 -20 12 -2 32 -6 46 -9 14 -3 36 -8 50 -11 14 -3 36
-7 50 -10 14 -3 57 -11 97 -19 39 -8 89 -17 110 -20 21 -3 49 -8 63 -10 14 -3
48 -7 75 -10 28 -3 64 -8 80 -12 33 -6 53 -8 135 -17 30 -3 76 -8 101 -11 60
-7 157 -15 239 -20 36 -2 110 -7 165 -11 135 -10 1035 -10 1210 0 232 14 432
30 515 41 19 3 55 7 80 10 95 10 146 16 175 21 32 5 68 10 125 19 64 9 115 17
135 21 19 4 143 28 195 38 113 21 452 107 495 126 11 4 43 14 70 21 28 6 55
15 60 18 6 3 18 7 29 8 10 2 33 10 50 18 17 8 58 23 91 34 60 20 165 61 220
86 17 7 57 25 90 40 116 52 130 59 135 64 3 4 34 20 70 38 85 42 144 76 148
86 2 4 8 7 14 7 22 0 302 195 397 276 55 47 182 166 215 203 17 18 48 52 70
75 51 55 217 276 224 298 2 10 8 18 13 18 5 0 9 4 9 9 0 5 17 38 38 72 45 76
124 238 160 329 37 95 68 186 88 263 1 4 2 8 4 10 1 1 3 9 5 17 2 8 11 44 20
80 8 36 18 81 21 100 2 19 7 43 10 53 3 10 7 30 9 45 2 15 6 41 9 57 5 31 16
119 22 170 11 106 22 490 14 490 -1 0 -3 32 -4 70 -8 161 -39 369 -82 540 -21
83 -85 278 -96 289 -4 6 -8 18 -8 28 0 10 -4 18 -10 18 -5 0 -10 7 -10 16 0
25 -120 250 -155 291 -30 35 -35 43 -35 48 0 30 -267 313 -356 377 -24 17 -44
35 -44 40 0 4 -4 8 -10 8 -5 0 -40 22 -78 50 -38 27 -74 50 -79 50 -6 0 -13 3
-15 8 -4 9 -39 29 -138 79 -41 21 -76 41 -78 46 -2 4 -11 7 -21 7 -9 0 -21 4
-26 8 -53 46 -681 250 -703 228 -3 -3 -10 -2 -16 3 -6 5 -29 12 -51 15 -22 4
-49 8 -60 11 -36 7 -79 14 -155 24 -41 6 -94 13 -116 16 -87 12 -149 17 -379
31 -55 4 -577 7 -1160 8 -583 1 -1065 5 -1072 9 -6 4 -14 4 -17 -1 -7 -12
-255 0 -276 13 -4 3 -24 7 -44 9 -55 7 -102 24 -203 73 -72 35 -105 58 -148
105 -30 33 -53 64 -50 69 4 5 2 9 -3 9 -10 0 -45 100 -50 140 -5 46 -3 185 3
210 3 14 8 36 11 50 16 80 73 200 140 290 46 62 164 189 164 175 0 -3 10 5 23
18 12 13 45 39 72 58 28 19 52 37 55 40 10 11 118 67 122 63 9 -8 255 -30 329
-29 27 0 49 -2 49 -5 0 -3 62 -5 138 -5 75 0 145 -3 154 -8 9 -4 20 -2 23 3 4
6 11 7 18 3 15 -9 348 -10 354 0 2 4 9 4 16 0 13 -8 57 -11 57 -3 0 3 35 5 78
6 42 1 111 4 152 8 41 4 93 9 115 10 22 2 58 6 80 9 22 4 63 10 90 13 62 8 69
9 125 19 65 11 79 14 135 25 28 6 59 12 70 14 11 2 40 9 65 16 25 7 50 13 55
14 6 1 19 5 30 9 11 3 31 8 45 11 14 2 45 12 70 21 25 9 55 19 68 21 51 10
445 175 462 194 3 3 28 16 55 30 28 14 52 28 53 33 2 4 8 7 14 7 10 0 216 131
251 160 10 8 27 22 37 30 10 8 35 28 56 45 40 30 277 265 304 300 42 55 86
111 90 115 3 3 19 25 35 50 16 25 32 47 35 50 26 24 191 339 215 410 1 3 5 12
8 20 22 54 65 180 60 180 -3 0 1 7 8 17 8 9 13 18 11 20 -3 4 7 52 19 83 5 14
12 39 15 55 9 44 12 60 14 60 1 0 3 11 6 25 2 14 9 48 14 75 6 28 12 64 15 80
12 85 15 106 20 151 12 100 18 191 19 271 1 46 5 83 9 83 5 0 5 5 1 11 -10 16
-11 89 -1 89 5 0 5 6 0 13 -4 6 -8 41 -9 77 -3 104 -17 245 -24 245 -1 0 -3
16 -4 35 -2 19 -13 82 -25 140 -13 58 -23 111 -24 118 0 6 -4 12 -9 12 -5 0
-7 4 -4 9 3 5 -10 60 -29 122 -20 63 -38 125 -41 139 -3 13 -11 38 -18 55 -8
16 -19 46 -26 65 -7 19 -24 59 -37 88 -12 29 -23 56 -23 61 0 4 -27 62 -60
129 -33 67 -60 125 -59 128 0 4 -3 10 -8 13 -6 3 -23 31 -40 62 -17 31 -62
103 -99 159 -38 57 -73 111 -79 119 -5 8 -14 20 -20 26 -5 6 -23 29 -40 50
-16 21 -47 58 -68 83 l-39 45 48 30 c26 16 52 30 58 32 13 2 81 31 111 46 12
6 27 11 35 13 8 1 40 10 70 19 383 114 736 -108 799 -503 6 -36 11 -81 11
-101 l0 -37 98 3 c200 7 369 38 527 99 111 42 258 140 306 203 13 17 27 29 32
26 4 -2 7 2 7 10 0 7 8 22 18 33 9 10 23 30 29 44 7 14 17 32 23 40 10 15 40
85 41 95 0 3 6 23 14 45 8 22 17 57 20 78 3 21 9 52 14 68 9 31 7 275 -2 337
-3 20 -9 43 -13 49 -4 7 -9 22 -10 35 -3 30 -85 200 -115 238 -49 63 -176 183
-234 221 -56 37 -185 104 -200 104 -4 0 -21 6 -38 14 -38 16 -129 43 -172 51
-16 3 -43 8 -60 11 -16 3 -41 8 -55 10 -30 5 -397 13 -402 9z m-3268 -1378
c14 -2 25 -5 25 -7 0 -1 9 -3 20 -5 11 -2 35 -8 53 -13 18 -6 36 -12 40 -13
26 -6 114 -47 157 -72 108 -64 262 -228 325 -347 14 -25 30 -52 37 -61 8 -9
15 -25 18 -35 2 -11 11 -33 19 -50 33 -64 96 -255 112 -339 2 -11 11 -54 19
-95 9 -41 18 -93 20 -115 2 -22 4 -40 5 -40 9 0 34 -265 45 -460 4 -86 5 -528
0 -610 -5 -101 -15 -238 -20 -275 -7 -50 -17 -139 -20 -180 -2 -19 -4 -35 -5
-35 -3 0 -10 -40 -12 -72 -2 -18 -7 -33 -11 -33 -5 0 -6 -4 -3 -8 6 -10 -26
-142 -62 -247 -14 -44 -26 -82 -27 -85 -2 -19 -29 -70 -38 -70 -6 0 -8 -3 -4
-6 9 -10 -68 -160 -100 -192 -7 -7 -13 -17 -13 -21 0 -27 -220 -221 -251 -221
-5 0 -9 -4 -9 -8 0 -15 -173 -80 -260 -97 -8 -2 -15 -4 -15 -5 0 -12 -324 -18
-398 -7 -34 4 -73 10 -87 12 -76 10 -245 84 -311 136 -20 16 -39 29 -42 29 -3
0 -30 24 -60 53 -121 115 -201 239 -287 442 -23 56 -72 215 -84 278 -34 166
-53 286 -61 392 -2 22 -6 76 -10 120 -3 44 -8 139 -11 210 -2 72 -5 135 -5
140 -1 6 -1 24 0 40 1 17 1 37 1 45 -1 73 17 424 25 495 3 28 7 66 9 85 2 19
6 51 10 70 3 19 8 58 11 85 4 28 10 68 14 90 5 22 9 47 9 55 0 16 29 129 56
220 9 30 18 62 20 70 3 8 5 16 6 18 2 1 3 5 5 10 2 7 3 10 42 107 33 81 93
190 140 255 56 78 169 190 242 240 69 46 226 114 242 105 5 -4 9 -2 9 3 0 5 6
9 13 9 24 1 102 15 106 19 6 5 315 -3 351 -9z m1170 -8181 c79 -7 170 -19 243
-32 17 -3 39 -7 47 -8 43 -8 174 -44 205 -56 163 -65 242 -113 320 -196 58
-60 75 -82 88 -112 6 -15 14 -29 18 -32 3 -3 17 -34 31 -70 22 -57 29 -80 45
-150 13 -61 18 -125 18 -255 0 -136 -3 -176 -20 -285 -3 -19 -8 -46 -9 -60 -2
-14 -5 -25 -6 -25 -1 0 -3 -11 -6 -24 -22 -119 -139 -359 -229 -471 -31 -38
-138 -153 -155 -166 -8 -7 -28 -24 -45 -38 -16 -15 -48 -39 -70 -54 -22 -15
-49 -35 -59 -44 -11 -10 -24 -18 -30 -18 -5 0 -17 -6 -25 -14 -9 -7 -41 -26
-71 -42 -30 -15 -63 -35 -72 -43 -10 -8 -18 -11 -18 -7 0 3 -18 -3 -39 -14
-75 -38 -299 -117 -386 -136 -5 -1 -30 -7 -55 -14 -25 -7 -54 -14 -65 -16 -11
-2 -30 -6 -42 -9 -13 -3 -35 -7 -50 -10 -16 -3 -39 -8 -53 -10 -14 -3 -43 -7
-65 -10 -22 -3 -62 -10 -90 -15 -49 -9 -80 -13 -180 -25 -27 -3 -70 -8 -95
-11 -25 -3 -70 -7 -100 -8 -30 -2 -109 -7 -175 -12 -66 -5 -257 -8 -425 -9
-309 0 -428 6 -600 30 -150 21 -181 26 -257 46 -40 11 -82 19 -93 19 -11 0
-20 4 -20 8 0 4 -9 8 -21 9 -11 1 -44 10 -72 20 -29 9 -54 18 -57 18 -88 23
-400 191 -400 217 0 4 -4 8 -10 8 -19 0 -123 105 -181 183 -113 151 -180 329
-206 552 -15 120 -8 387 12 485 3 14 8 40 11 58 3 18 16 63 29 101 13 38 21
72 17 75 -3 3 -1 6 5 6 6 0 16 14 22 31 13 36 92 165 121 196 11 12 20 24 20
27 0 9 104 111 150 148 52 41 169 113 220 135 62 27 160 62 160 57 0 -3 8 0
19 5 10 6 31 13 47 16 16 2 40 7 54 10 76 16 218 35 294 40 38 3 70 6 72 8 5
5 2226 -2 2284 -7z"/>
</g>
</svg>
